:FULLY-SPECIFIED
:FORCE-ALL-JOINTS-BE-3DOF
:DEGREES
372
root 9.34234 17.0489 16.1266 6.25264 4.49745 -3.05368
lfemur -34.9281 5.53156 -17.6453
ltibia 59.4641 0 0
lfoot -14.9263 11.7922 0
ltoes -0.931546 0 0
rfemur -13.0372 6.22353 29.1423
rtibia 29.0951 0 0
rfoot -19.4234 2.45125 0
rtoes -17.6202 0 0
lowerback -5.63609 0.090709 0.163019
upperback -0.842101 0.0374937 2.69931
thorax 2.2872 0.0127667 2.70485
lowerneck -20.1834 -6.29667 -12.5632
upperneck 21.6732 -8.17925 12.6849
head 11.4843 -3.25952 5.48263
lclavicle -7.68775e-15 -4.18806e-14 0
lhumerus -46.7242 -18.1618 97.7619
lradius 28.4998 0 0
lwrist 12.3265 0 0
lhand -14.2276 -21.9161 0
lfingers 7.12502 0 0
lthumb 11.9096 7.72364 0
rclavicle -7.68775e-15 -4.18806e-14 0
rhumerus -33.8943 17.8249 -84.4698
rradius 43.8839 0 0
rwrist -22.3813 0 0
rhand -30.8984 -24.2586 0
rfingers 7.12502 0 0
rthumb -4.18503 -54.1975 0
373
root 9.35508 17.0409 16.2674 6.27361 4.3476 -3.20295
lfemur -35.6896 5.46208 -17.5284
ltibia 59.4518 0 0
lfoot -14.9587 11.9221 0
ltoes -1.02587 0 0
rfemur -12.1424 6.27317 29.3419
rtibia 28.4172 0 0
rfoot -19.3088 2.56457 0
rtoes -17.5673 0 0
lowerback -5.67316 0.198334 0.281234
upperback -0.832989 0.168267 2.72132
thorax 2.31014 0.0791686 2.67737
lowerneck -20.179 -6.31245 -12.5715
upperneck 21.677 -8.20099 12.6889
head 11.4888 -3.26968 5.48226
lclavicle -7.91984e-15 -4.1899e-14 0
lhumerus -47.0833 -17.8286 97.6983
lradius 28.3775 0 0
lwrist 12.2794 0 0
lhand -14.161 -21.8678 0
lfingers 7.12502 0 0
lthumb 11.9737 7.76675 0
rclavicle -7.91984e-15 -4.1899e-14 0
rhumerus -33.6637 17.8749 -84.5228
rradius 43.9222 0 0
rwrist -22.3564 0 0
rhand -30.8956 -24.2388 0
rfingers 7.12502 0 0
rthumb -4.18228 -54.1777 0
374
root 9.36782 17.0329 16.4082 6.2985 4.19173 -3.35887
lfemur -36.413 5.38552 -17.3965
ltibia 59.3237 0 0
lfoot -14.9599 12.036 0
ltoes -1.16159 0 0
rfemur -11.205 6.32079 29.5421
rtibia 27.6737 0 0
rfoot -19.1554 2.69053 0
rtoes -17.511 0 0
lowerback -5.71931 0.308709 0.403063
upperback -0.82375 0.302091 2.74546
thorax 2.33897 0.147091 2.65053
lowerneck -20.1709 -6.32769 -12.5823
upperneck 21.6785 -8.22218 12.6957
head 11.4918 -3.27959 5.48338
lclavicle -8.07723e-15 -4.18856e-14 0
lhumerus -47.4473 -17.498 97.6385
lradius 28.265 0 0
lwrist 12.223 0 0
lhand -14.0724 -21.8199 0
lfingers 7.12502 0 0
lthumb 12.059 7.80784 0
rclavicle -8.07723e-15 -4.18856e-14 0
rhumerus -33.4369 17.9081 -84.5772
rradius 43.9387 0 0
rwrist -22.3163 0 0
rhand -30.887 -24.2158 0
rfingers 7.12502 0 0
rthumb -4.17395 -54.1549 0
375
root 9.38056 17.025 16.549 6.32707 4.03032 -3.52079
lfemur -37.099 5.30231 -17.2507
ltibia 59.0854 0 0
lfoot -14.9316 12.1345 0
ltoes -1.33634 0 0
rfemur -10.2288 6.36629 29.7424
rtibia 26.8696 0 0
rfoot -18.9652 2.82812 0
rtoes -17.4516 0 0
lowerback -5.77399 0.421523 0.528104
upperback -0.814415 0.438604 2.77157
thorax 2.37333 0.216352 2.62433
lowerneck -20.1593 -6.34239 -12.5954
upperneck 21.6777 -8.24276 12.705
head 11.4934 -3.28923 5.48592
lclavicle -8.1642e-15 -4.18414e-14 0
lhumerus -47.8151 -17.1702 97.5822
lradius 28.1618 0 0
lwrist 12.1575 0 0
lhand -13.963 -21.7723 0
lfingers 7.12502 0 0
lthumb 12.1644 7.84693 0
rclavicle -8.1642e-15 -4.18414e-14 0
rhumerus -33.2144 17.9252 -84.6328
rradius 43.9343 0 0
rwrist -22.2615 0 0
rhand -30.8729 -24.1898 0
rfingers 7.12502 0 0
rthumb -4.16034 -54.1292 0
376
root 9.3933 17.017 16.6898 6.35904 3.86382 -3.68807
lfemur -37.7483 5.2129 -17.0921
ltibia 58.7426 0 0
lfoot -14.8754 12.2182 0
ltoes -1.54777 0 0
rfemur -9.21714 6.40956 29.9424
rtibia 26.0102 0 0
rfoot -18.7403 2.97633 0
rtoes -17.3894 0 0
lowerback -5.83666 0.536463 0.655954
upperback -0.805014 0.577443 2.79947
thorax 2.41286 0.286768 2.59879
lowerneck -20.1445 -6.3565 -12.6106
upperneck 21.6749 -8.26267 12.7167
head 11.4937 -3.29857 5.4898
lclavicle -8.18503e-15 -4.17672e-14 0
lhumerus -48.1856 -16.8455 97.529
lradius 28.0674 0 0
lwrist 12.0832 0 0
lhand -13.834 -21.7253 0
lfingers 7.12502 0 0
lthumb 12.2886 7.88403 0
rclavicle -8.18503e-15 -4.17672e-14 0
rhumerus -32.9963 17.927 -84.6895
rradius 43.9098 0 0
rwrist -22.1928 0 0
rhand -30.8536 -24.1614 0
rfingers 7.12502 0 0
rthumb -4.14174 -54.1011 0
377
root 9.40604 17.009 16.8306 6.39418 3.69269 -3.86006
lfemur -38.3617 5.11774 -16.922
ltibia 58.3009 0 0
lfoot -14.7928 12.2876 0
ltoes -1.79353 0 0
rfemur -8.17373 6.45051 30.1414
rtibia 25.1002 0 0
rfoot -18.4826 3.13416 0
rtoes -17.3247 0 0
lowerback -5.9068 0.653217 0.786211
upperback -0.795577 0.718245 2.82901
thorax 2.45721 0.358158 2.57391
lowerneck -20.1267 -6.36999 -12.6277
upperneck 21.6702 -8.28186 12.7306
head 11.4928 -3.30759 5.49492
lclavicle -8.14401e-15 -4.1664e-14 0
lhumerus -48.5577 -16.524 97.4788
lradius 27.9813 0 0
lwrist 12.0003 0 0
lhand -13.6866 -21.6788 0
lfingers 7.12502 0 0
lthumb 12.4306 7.91918 0
rclavicle -8.14401e-15 -4.1664e-14 0
rhumerus -32.783 17.914 -84.7473
rradius 43.8663 0 0
rwrist -22.1109 0 0
rhand -30.8295 -24.1306 0
rfingers 7.12502 0 0
rthumb -4.11844 -54.0707 0
